Simulation
nRows=24
nColumns=15
endheader
time  TH_x TH_y TH_z SC_y  SC_z  SC_x  AC_y  AC_z  AC_x  GH_y  GH_z  GH_yy  EL_x  PS_y
0.75  0.000000  0.000000  0.000000  -33.96072337729791  5.240189263642853  20.835695138103418  59.860641881577195  -3.281907585057343  -10.774437341298674  22.766837149783804  32.57257602373982  -19.18240473628231  19.97910736436882  0.000000
0.765  0.000000  0.000000  0.000000  -34.13750705793094  5.442662601544423  21.06161753053902  59.960497574080264  -2.959694820082603  -10.635978139725033  22.785230691320915  33.08210502533196  -19.48044932490345  19.77472661201957  0.000000
0.78  0.000000  0.000000  0.000000  -34.312055905870714  5.646007436553478  21.292610689487454  60.05177377627926  -2.635137704033569  -10.5011469330108  22.80936453467233  33.578186571733056  -19.776966655111806  19.56900937301177  0.000000
0.7949999999999999  0.000000  0.000000  0.000000  -34.48472606951185  5.850583384707388  21.52918483117716  60.134262841922215  -2.3097990004753126  -10.369335258441357  22.83965885915722  34.06091248405957  -20.072295928567076  19.362592086396177  0.000000
0.8099999999999999  0.000000  0.000000  0.000000  -34.653835900144436  6.056588610545908  21.770414842908888  60.20789726182972  -1.985284770200595  -10.23990794339613  22.87660520833236  34.53037417548956  -20.3668897164256  19.15606925149196  0.000000
0.825  0.000000  0.000000  0.000000  -34.819483621362124  6.264318336389371  22.016604644919866  60.27264519188633  -1.6630831758313007  -10.11213555091158  22.92024350989066  34.98671081991475  -20.660833427762874  18.94989728555312  0.000000
0.84  0.000000  0.000000  0.000000  -34.97994721165672  6.473575095741386  22.266608721390377  60.32844297602046  -1.3444967843042532  -9.985206658470142  22.970519480383533  35.43001488859295  -20.95400991685672  18.744531708803287  0.000000
0.855  0.000000  0.000000  0.000000  -35.13610643205622  6.685109598859091  22.52043945442346  60.37546983824714  -1.0309514251373721  -9.858148887637963  23.027567802931227  35.860444885359925  -21.246619706926307  18.540761631717704  0.000000
0.87  0.000000  0.000000  0.000000  -35.287402346280864  6.8990056683624035  22.77693522658037  60.41424383268773  -0.7237235500682571  -9.729862338856854  23.091035518097584  36.27795213345455  -21.538272186867857  18.339374698676277  0.000000
0.885  0.000000  0.000000  0.000000  -35.435285656971836  7.115286135636427  23.036517453130735  60.44544161929663  -0.4239198921865713  -9.599496405691346  23.16004436771741  36.68249256239776  -21.82812764809943  18.14102991596428  0.000000
0.8999999999999999  0.000000  0.000000  0.000000  -35.579059192647854  7.333799365345138  23.29806705483117  60.470008899650296  -0.1325166629742558  -9.466453654692925  23.233546178022216  37.073971002840246  -22.11541235182845  17.946345830885612  0.000000
0.9149999999999999  0.000000  0.000000  0.000000  -35.720169620328484  7.554605228677776  23.56197834004781  60.4889661190081  0.14966556680106582  -9.329929532115123  23.310038456271403  37.452195920841035  -22.39872505046596  17.75590814650731  0.000000
0.9299999999999999  0.000000  0.000000  0.000000  -35.85809190794731  7.777118103676559  23.8270612966272  60.50341999830189  0.421910571614079  -9.189196437981689  23.388026685413593  37.81719966032663  -22.676858307734722  17.57023812699887  0.000000
0.945  0.000000  0.000000  0.000000  -35.99443565387176  8.001262472914059  24.09348539349357  60.51455545482223  0.6835670267845253  -9.04346680736857  23.466020954625208  38.169114488262984  -22.948563897225455  17.389887238783338  0.000000
0.96  0.000000  0.000000  0.000000  -36.128922865652754  8.226421629136265  24.359903893701475  60.523473475941366  0.933968611742165  -8.892002512581946  23.54265593480901  38.50827826351703  -23.212717151764597  17.21546625410909  0.000000
0.975  0.000000  0.000000  0.000000  -36.26321776493323  8.452477078906192  24.626605599924826  60.53117956736323  1.1724772740859761  -8.734312444344384  23.61650452279551  38.835032440564  -23.468086980635423  17.047634292631116  0.000000
0.99  0.000000  0.000000  0.000000  -36.39652376522519  8.678819638888086  24.89234688246938  60.53854430095874  1.3986587444906333  -8.570368865403402  23.686047495039855  39.14972912396932  -23.713465414616866  16.886996410160904  0.000000
1.005  0.000000  0.000000  0.000000  -36.530049254178074  8.905050588865201  25.157485932737675  60.54647075319488  1.6123587068454064  -8.400281838082401  23.749555020918038  39.45269675475939  -23.947474436868063  16.734070214832574  0.000000
1.02  0.000000  0.000000  0.000000  -36.66299616671855  9.130032425615545  25.42077718515095  60.5559268129859  1.8136273264813594  -8.22438140406889  23.805342968424824  39.7444067283546  -24.168807053058554  16.589323405452713  0.000000
1.035  0.000000  0.000000  0.000000  -36.79666177642732  9.353190833709341  25.682570309733027  60.56771204337672  2.002634569472387  -8.043084299459128  23.851775762056867  40.025263910616644  -24.37608300630786  16.45330708785769  0.000000
1.05  0.000000  0.000000  0.000000  -36.93023717247175  9.57338119604637  25.94148864466276  60.58245732208798  2.17973125517734  -7.857056348501082  23.887455872558238  40.29576620247469  -24.56813311366682  16.326533939115812  0.000000
1.065  0.000000  0.000000  0.000000  -37.06500419639846  9.78998589958471  26.19780977696118  60.600536696201964  2.345377330043212  -7.667087882245514  23.91112643193888  40.55631102437156  -24.743845284275324  16.20952668301029  0.000000
1.08  0.000000  0.000000  0.000000  -37.20005220371464  10.001798687672371  26.450034962955584  60.62215435399417  2.5002008534648663  -7.47428428233548  23.92178140572811  40.807354293315385  -24.902378286669112  16.102732809160624  0.000000
1.095  0.000000  0.000000  0.000000  -37.33663712650072  10.208031921039245  26.698405398330763  60.647357880393955  2.6448978201945557  -7.27990894833496  23.918557307200775  41.049243965358464  -25.042957025512838  16.006569839181463  0.000000
